/* XPM */
static char *team_logo_xpm[] = {
/* width height num_colors chars_per_pixel */
"184   48  16  1",
/* colors */
"` c #24468c",
". c #94aac8",
"# c #bcd6e4",
"a c #e5eefa",
"b c #5e7bae",
"c c #b3bed4",
"d c #f4f9fb",
"e c #748ab4",
"f c #d4dce5",
"g c #3c5c97",
"h c #809ac0",
"i c #546aa4",
"j c #acc6dc",
"k c #94bad4",
"l c #dce6fb",
"m c #c4cadc",
/* pixels */
"llllllllllllllllalallllllllllllllllllllllllllalalalalallllllllllllllllllllalallallllllllllllllllllllllllllllllllllllllllllllllllllllllllllllllllllllllllllllllllllllllllllllllllllllllll",
"lllllllllalalllllllalllalllllalalllllallllllllllllllllllllllllllllllllllllllllllllllllllllllllllllllllllllllllllllllllllllllllllllllllllllllllllllllllllllllllllllllllllllllllllllllllll",
"lllllaaalllllalalllllllllllallllllllllllllllllllaaaaaalllalllallallallllllllllllllllllllllllllllllllllllllllllllllllllllllllllllllllllllllllllllllllllllllllllllllllllllllllllllllllllll",
"lllaaaaaaaaaallllalllaalalalalalaaaaalaaaaaaaaaaaaaaaaaaalaaalaaaaaalallllllllllllllllllllllllllllllllllllllllllllllllllllllllllllllllllllllllllllllllllllllllllllllllllllllllllllllllll",
"laaaaaaaaalaaaaaalaaaaaaaddddddddaalaaaaaaaaaaaaaaaaaaaalalalalllllllllllllllllllalalaaaalaallllllllllllllllllllllllllllllllllllllllllllllllllllllllllllllllllllllllllllllllllllllllllll",
"aaaaaaaaaaaaaaalaaaaadddlf#khh.jfaddaalalaaaaaaaaallllllllllllllllllllllalalalaaaaaaaalaaaalaaaaaaallllllllllllllllllllllllllllllllllllallllllllllllllllllllllllllllllllllllllllllllllll",
"aalaaaaaaaaalaaaaaadd#.h.kkjjjj...c#adaaaaaaaaaaaaaaaaaaaaaaaaaaaaaaaaalllllalallaaaaaaaaaaaaaaaaaaalalaalaaalllllllllalllllllllllllllllllllllllalalllllllllllllllllllllllllllllllllllll",
"aaaaaaaaaalaaaaaadd#hhkl#jdddddddlc.hjadaalalaaaaaaaaaaaaaaaaaalaalaaaaaaaaalllllallllllaaaalllllllaaaaaaaaalaaaalllllllllllllllllllllllllllllllllllllllllllllllllllllllllllllllllllllll",
"aaaaaaaaaaaaaaaadahhmdddhbaddda#jjcdakhmddaaaaaaaaaaaaaaaaaaalaaaaalaaaaaaaaaaaaaaaaaaalllllalllllllllafallllllllllllllalllllallllllllllllllllllallllllllllllfaallllllllllllllllllllllll",
"aaaaaaaaaaaaaaadmbjdddd#jg.dddak#jldddah.adaaaalaaaaaaaaaaalaaadddaaalalaaaaalaaadddaallllllllaaaaaaaalallaldaalllllllllallladddlallalllllllllddddallllllllllddddlalllllllllllllllllllll",
"aaaaaaaaaaaadadkbldddd#g.h.dddjkk.ddddddkhadaaaaaalaalaaalaaaadahldlaaaaaaalaaaadfecdalalallllallalllllllaaddddaaaalallllaaddmeadllllldddaddddd.b.ddlllllldadaeefdaaaallllllllllllllllll",
"aadaaaaaaaaaadkbddddddd.a##ddd##cj#dddlflmhadaaaaaaaaaaaaaaaaadm`bddalaaaaaaaaadc```mdaaaaaaallllllalladdddmigfdlllllladddddai`edaaaaadmddlfaadc``mdllladdaadde`gddddlllllllllllllllllll",
"aaaaaadaaaaadjel#j.a#ddda#jm##m##k#dddhcjajbddaalaaaaaalaaaaadag`iaddaaalaalaaddffigldladddaaalaaalaaadffce``gldllllllddme.fggicdallladbhdm`eafggcalladdae`edd.ei.ihdallllllllllllllllll",
"aaaaaaaaadadlbadj.l..dajj#adddal#j#ddddkj.#k.daadaaaaaaaaaaaad.`gg`.ddaaaaaaaaaaddi.daddcifdaaaaalaaldde````baalaalaladm`glcmdddflaaaad.`lh`afg.dddaadmb``gfadahi``cdlllllaaaaaaaaaaaaaa",
"aaadaaaaaaadhjdd#bkjd#klddddddddda#kafiil.adh#daaaaaaaadaaaadf``fa.`ildaaaaadddadaimddfb``bddaalaaaddfddmcigdamllaaaaadfblddf.mdalaaaadcgafmdh.m..haddfehg.mh.ihmbfl#allllllaaaaaaaaaala",
"aaaaaaaaaad#hdddahhljmdddddddddd#ddajj.#ddddlbddaadaaaaaaaaddi`hdfdfg`cddadadafddaille`emiedalaaadddmbdadl``fdddaallllddddci``iddaaaaddllddfh..hi``idddc.ileg.ddmlamlllaaaaaaaaaaaaaaaaa",
"aaaaaaadaaahfddddj#jfdddddddddjbihdddkaddddddhkdaaaaaaaaaadde`idadddai`imddad.bac.icgb.edehdlalaadcdh.ddde`gmffddadddddce``b.madlllladhadcgefddaibhfdddiggfgefciidflallllaaaaaaaaaaaaaaa",
"aaaadaaaad#hddladdf#dddddddlkhhk#.hdddkddddda#hadaaaaaaaaadm``mddacg.d.``bfdd.bf``eeeac`hgmdaaaadcidimmdlii`g``.ddddleg`g.fddllfaaaadc`bbgcddfa.fdaffddi`g.`ebg`fddaaaalaaaaaaaaaaaaaaal",
"adaaaaaaad.jljkddajdddddd#.h.kkhbh..ddfjdkkhhlhfdaaadaaaddlg`.acbg``mddfb`eddhedi`.dcefb`iaaaddddieagehdhgg`he`gddcggg.fdladdmldaaadfg``iadhg`ifdmffldlimbmmddmgb.dlaaaaaaaaaaaaaaaaaaaa",
"aaaaaaaaddh#hkhjd#fdddd#.hkkehek#.e..ddjfkfj.#.kdaaaaaadddi`ehg```ildaaddffddbefgg.difddalafdaadagbc``mf```gdc`gddd.fdccdad.i`gldladh``.ddeeg``mdaaaadfgaddddae``cdaaaaalaaaaaaaaaaaaaaa",
"aaadaadadfhdk.b`##ddamk.kjkh.jjj.k..hkdffahhjhjkddaaaaddde`iddf.mmckfdaaaafadi.hbh.chdfllf#ddecdlgbk``m.`hb`d.`gdaadldgedde`.igadaaddladfddfg`.dlaaaadmgaddd.g``.dfaaaaaaaaaaaaaaaaaaaaa",
"aaaaaaaadj.dahjhf#d#kkkcjjkcf#jkkkm#.hkdm#jfddf.ddaaaadfe`gfddhdci```fdaaaldag.h`gmemdaaddddm`.dagic``ah`de`.g`bdaaldmgadhbig`mdadddalfmfad.`.ddaaaaadmgdd.gbc`edfladddaaaaaaaaaaaaaaaal",
"aaaaaaaad.jdd.fdff###aaa#jj###jjkk##jj.f#fhadddhfdaaaadb`gfddeib`````fdaaaddm`mfi`mbmddddf.b``.df`ic`hdmmde````fdaaddhbd.emhffdfdamdaaaaadde`eehddaaadm`cd.mdb`edaaadmadaaaaaaaaaaaaalaa",
"aaaaaaaddbkdddddfffffdaa#jjjm#jjkk##mdjf#aaddddbjddaaddi`mdal```.i`gcdaaaaad.ga.cbmegheeg`````mddicc`fddadb`gbmafaaad..fgah.ddfad.edaaaaddcg````bddaadm`.dddbieedaaddg.daaaalaalaaaaaaaa",
"aaaaaaaddbkddddd#lfffdffmjj###kj..###ljf#adddddbjdaaaadfcdfdc``mfg`icdaaaaddgbdaggfabiibeh...mdadddf.dlaldb`ldlmaaaad.eicdicddddfgbddaaad.bhg`becdaaad.`cdd.gabmdddd.`edaaaaaaaaaaaaaaaa",
"aaaaaaadd.kddddd#fflfdaamjjkjkk..hj##fkf#adddddbfdaaaaadafade`gag````fdaaddm`mddb`fddaaddddddffadalddaladdigdlfadaaadc`iddebcc.b``hddaaadibfg`fddflaad.`cd.gldbbmmhi``.daaaadaadaadaaaaa",
"dadddadddj.dddadf#l#mdalkh......b..hkljfmddlddlhddaaaaaaaaadf`babg`icdlaadagidad.`mdalfffflllaaaaaaallaaddigdddaaaadd.`mddligggighdalaaadmg``iddfaaaddlgmdimddai```gicdladaaaaaaaaaaaaaa",
"dddaddaddfhdlkmddjmlllfflalllladh#afflmj#dl.jd#.ddaaaaaaaaaddfladmfdlfladdegaafdaifdaadadddadaaaaaaaaaaadagbdaaaaaaadf.dfaddddddddfladaadda.efdaaaaaaaddaddlmaddaffddaflaaaaaaaaaaaaaaaa",
"ddadadddadhadkcdd#k###f#m#######.j#f#m#kadj#adkkddaaaaaaaaaaaaflddlmfldaddmflfadddllaaaadaadaaaaaaaaaadadfgedaaaaaaaddafaaaalflflflaaaaaaaaddalaaaaaaaaaflafaaalllffffldaaaaadaaaaaaaada",
"dadddadddd.jdfk#dajdddddddddddddddddddfjddjjldh#ddaaaaaaaaaaaaadaaaadddddddffddddafaaaaaaaaaaaaadaadaaaadl`.daaadaaaaalaaaaaaaaaaaaaaaaaaaallfaadaaaaaadaadaaaaaaaaaaaaaaaaaaaaadaaaaaaa",
"dadadddaddmhd#c#ad#fddddddaldldlddddddkddfjldfhdddaaadddadaddaddadadaaaaaaaaaaaaaaddaaaaaaaaaaaaaaaaaaaadlgfddaaaaaaaaaaaaaaaaaaaaaaadaaaaaadaaaaaadaaaaaaaaaaaaaaaaaaaaadaaaaaaaaadaaaa",
"dddddadddddbldj.#ddk#dafdkhh.h.blllddkfddjkfd.kddaddadadddddaddddddaaaaaddddaaaaaaaaaaaaaaaaaaaaaaaaaaaadacdaaaaaaaaadaaaaaaaadaaaaaaaaaaaaaaaaaaaaaaaaaaaaaaadaaaaaaaaaaaaaaadaaaaaaaaa",
"dadaddadaddjhdlf.addj#dddal##f#jdddakfdd#kjdlhaddddadddddddddddddadaddddddaadddddaddddadddddddaaaaaaaaaaadafaaaaaaadddaaddddaaddaaaaaaddddaaaaaaaaaaaaaaaaaaaddddadaaadaaaaaaaaaaaaaaaaa",
"dddadadadadde#djjjfddjjldddddddddd#kadd#hkadhjdddadddadddmladdmaaddddddfemladadfcaadamdfdffdaadaaadaadadaaaaaaadaaddmffddffdadffdadaadacffaadaaadaaaadaadaaddmmdddaaaaaaaadaaaaaaaadaaad",
"ddadddddddddfbddckadddlkj#lddddfmkjdddkjmfdk.ddaddddaddddimaddimaddddddiefaddddcclad.`caa.edadddddddddddddddddddddddb.adde.dddb.aadddda.aldddddddddadddddddddcmledldddddaaaaaadaaaaaaaaa",
"daddadadadaddcbdaaa.fdddaf#jmmmmldddl##.fd#badddadadddaddimaddbmda..ldmg.dfh.ddafaadcggad.eddchmddfm.m#c.dc.addch.ddb.adde.dddecdmmhmddffmddfmdl..adam.fa..adfl.gcmddlmdldaaaaaaadaaaaaa",
"ddadddddddddddkhdd#kkjlddddddddddda#kkfddmbfdddadddadadddbhccmifai..blc`hmb.eedhbaddc.hbd.edhicgcdiichgcii.bedhiciede.ldde.dddeca`e.gmagmgldehai..idc`.ci.eedeh.`cicdeedldaaaaaaaaaaaaaa",
"dddadadadadadddkeldaj#kk#aadddddf#.jjfddcbfddaddadaddadddeihhegfciffihdbaeefmgm.eaadcedgcchdgfdmidbcdhbdcgdlidmlahidb.adde.dddecaglde.aiaicdil.bffgccbddg.lfdh.fbd.edgfflaaadaadaaaaaaaa",
"ddddddddddddddddcbjddfkhjkkm#jdakf#jadahbadddddadddadddddbmdadbf.geeemdbfeieeel.eaad.edmg.haiacfgaimd.edcbdfbdmbeiede.adde.dddbcagdde.agacemidhgeeefkbddfig.dhhfbdficidfdaaaaaaaaaadaada",
"ddaddaddaddaddaddfhh#ddl#jjjkc#df#dddke.ddddadddadadadaddbmamabfciddmfdbfheddcd.baddcbddh`hdgmdcidbcdhedcidfiagcdhbdb.aad.iddlgfagade.aglabg.dhbddcacida.dl`fh.fbdde`cafdaaaaaaaaaaaaaaa",
"dddddddddddddddddddjhhjaddddaaddda#.b.fdddadddaddddddddddbclaaifdbeeiadbfaiebbd.eladcedadgedcihimdimdhedcbdfbdeb.ibde.lddabgeghdliadecagade`fdabbeidcbdaibeedhhag.d.`ffaaaaaaaaaaaaaaaaa",
"dddaddaddaddaddadddddl.hhhjj##jk.hhklddddaddaddadadadadadfffadfllammlffflfacclfflfadlfaflflfafcfllflaffaafmafaaccafaflfdalamcflflflllfafallflfdacclffflflmclfffammdcbdfddaaaaaaaaaaaaaaa",
"ddddddddddddddddddddddddfmkhbb.cfaddddddddddddddddddddddaffadaffaflfmflfflflfmffffddfffdafflfflmffffffffffflffflfmfffflddafflfmlffflfffffafffaaflfmffflaflfmffffadcgmlaadadaddadadaaaaaa",
"dddaddaddaddaddaddaddaddddddddddddddaddaddaddaddaddaddaddaddaddaddaadaddaddaaadaddadadadadddddaddadddddddddadaddadadaddaddadladaddadaddaddadaddadadaddadaaadaddaaaf#lfadddadaddaddadadda",
"adddddddddddddddddddddddddddddddddddddddddddddddddddddddddddddddddddddddddddddddddddddddddddaddaddddaddaddaddddadadddadddadddadddadddadddadddadddadddadddadddadddallfldddadddadddadddadd",
"dddddddddddddddddddddddddddddddddddddddddddddddddddddddddddddddddddddddddddddddddddddddddddaddaddaddddaddaddaddddddadddadddadddadddadddadddadddadddadddadddadddadddadddadddadddadddaddda",
"dddddddddddddddddddddddddddddddddddddddddddddddddddddddddddddddddddddddddddddddddddddddddddddddddddddaddaddaddadadadadadadadadadadadadadadadadadadadadadadadadadadadadadadadadadadadadad",
"dddddddddddddddddddddddddddddddddddddddddddddddddddddddddddddddddddddddddddddddddddddddddddddddddddddddddddddddddddddddddddddddddddddddddddddddddddddddddddddddddddddddddddddddddddddddd"
};
